<svg xmlns="http://www.w3.org/2000/svg" viewBox="0 0 512 512" style="height: 512px; width: 512px;"><defs><filter id="shadow-1" height="300%" width="300%" x="-100%" y="-100%"><feFlood flood-color="rgba(0, 0, 0, 1)" result="flood"></feFlood><feComposite in="flood" in2="SourceGraphic" operator="atop" result="composite"></feComposite><feGaussianBlur in="composite" stdDeviation="6" result="blur"></feGaussianBlur><feOffset dx="0" dy="0" result="offset"></feOffset><feComposite in="SourceGraphic" in2="offset" operator="over"></feComposite></filter></defs><path d="M0 0h512v512H0z" fill="url(#pattern)" fill-opacity="1"></path><svg><defs><linearGradient id="a" x1="240" y1="16" x2="240" y2="496" gradientUnits="userSpaceOnUse"><stop offset="0" stop-color="#7d787a"></stop><stop offset="1" stop-color="#423e44"></stop></linearGradient></defs><path fill="url(#a)" fill-rule="evenodd" d="M0 0h512v512H0z"></path><path d="M8 0l30.63 37.93 259.87-9.84 178.4 11.95L504 0H204.7l-10.2 8.779L159.4 0z" overflow="visible" fill="#fff" fill-opacity=".269" fill-rule="evenodd"></path><path d="M2.809 511.6l42.841-40.7L184 468.5l27.4 26.6 10.5-23.8 250.1 7 6.7 18.3 29.3 15.7z" overflow="visible" fill-opacity=".24" fill-rule="evenodd"></path><path d="M511.7 16.15l-39.1 50.39-2 324.26 10.1 19.9-7.3 53.5 20.9 9.1 18 23.8L512 215l-15.5-28.8 15.4-11.4z" overflow="visible" fill-opacity=".19" fill-rule="evenodd"></path><path d="M0 15.18L35.12 61.1l-8.61 93.8 10.19 13.9-5.13 97.4-14.85 18.9 12.62 23.3 7.5 83.9v57.4L-.743 496.5z" overflow="visible" fill="#fff" fill-opacity=".099" fill-rule="evenodd"></path><path d="M51.56 56.62L43.16 141l10.74 22.4-8.99 103.7-10.46 17.5 7.05 21.8 10.61 116.8 21.9 32.6 109.29.5 34.2-12.4 6.5 12.5 235.3 2.3 6.9-33.9-13.7-12.6 6.2-20.4-6-331.94-150-14.62-29.5 1.34-1.4 25.57-60.4-22.77z" overflow="visible" fill="#797677" fill-opacity=".434" fill-rule="evenodd"></path></svg><g class="" transform="translate(0,0)" style=""><path d="M235.11 196.24l17.074-29.463v29.463H235.11zM486.95 456H25.05L256 56zm-358.631-54.833l41.212-22.943-6.702-12.075-59.699 33.303 5.458 9.805a11.278 11.278 0 0 1 2.645-.881 11.822 11.822 0 0 1 5.566-.085 12.534 12.534 0 0 1 6.34 4.01 59.3 59.3 0 0 1 5.071 7.353l7.994-4.456zM273.074 196.24h-7.74v-42.734H250.24l-25.14 41.515v11.749h27.072v14.72h13.162v-14.72h7.74v-10.518zm131.619 212.45q6.822-11.93.616-21.735-3.26-5.132-10.675-9.745l-6.484 11.338a22.677 22.677 0 0 1 6.533 5.483q2.873 4.19-.17 9.515a8.453 8.453 0 0 1-5.916 4.552 10.868 10.868 0 0 1-7.463-1.497 14.08 14.08 0 0 1-6.436-8.513 99.728 99.728 0 0 1-2.294-15.167q-1.316-13.089-5.82-18.982a32.144 32.144 0 0 0-10.095-9.418l-23.28 40.705 10.275 5.88 14.828-25.913a15.203 15.203 0 0 1 1.679 4.577q.47 2.415 1.062 8.585l.64 6.57a45.149 45.149 0 0 0 2.717 12.823 21.518 21.518 0 0 0 9.455 10.638q8.598 4.915 17.002 2.33 8.404-2.584 13.814-12.014z" fill="#ff001f" fill-opacity="1" stroke="#000000" stroke-opacity="1" stroke-width="4" filter="url(#shadow-1)"></path></g></svg>