<svg xmlns="http://www.w3.org/2000/svg" viewBox="0 0 512 512" style="height: 512px; width: 512px;"><defs><filter id="shadow-1" height="300%" width="300%" x="-100%" y="-100%"><feFlood flood-color="rgba(0, 0, 0, 1)" result="flood"></feFlood><feComposite in="flood" in2="SourceGraphic" operator="atop" result="composite"></feComposite><feGaussianBlur in="composite" stdDeviation="6" result="blur"></feGaussianBlur><feOffset dx="0" dy="0" result="offset"></feOffset><feComposite in="SourceGraphic" in2="offset" operator="over"></feComposite></filter></defs><path d="M0 0h512v512H0z" fill="url(#pattern)" fill-opacity="1"></path><svg><defs><linearGradient id="a" x1="240" y1="16" x2="240" y2="496" gradientUnits="userSpaceOnUse"><stop offset="0" stop-color="#7d787a"></stop><stop offset="1" stop-color="#423e44"></stop></linearGradient></defs><path fill="url(#a)" fill-rule="evenodd" d="M0 0h512v512H0z"></path><path d="M8 0l30.63 37.93 259.87-9.84 178.4 11.95L504 0H204.7l-10.2 8.779L159.4 0z" overflow="visible" fill="#fff" fill-opacity=".269" fill-rule="evenodd"></path><path d="M2.809 511.6l42.841-40.7L184 468.5l27.4 26.6 10.5-23.8 250.1 7 6.7 18.3 29.3 15.7z" overflow="visible" fill-opacity=".24" fill-rule="evenodd"></path><path d="M511.7 16.15l-39.1 50.39-2 324.26 10.1 19.9-7.3 53.5 20.9 9.1 18 23.8L512 215l-15.5-28.8 15.4-11.4z" overflow="visible" fill-opacity=".19" fill-rule="evenodd"></path><path d="M0 15.18L35.12 61.1l-8.61 93.8 10.19 13.9-5.13 97.4-14.85 18.9 12.62 23.3 7.5 83.9v57.4L-.743 496.5z" overflow="visible" fill="#fff" fill-opacity=".099" fill-rule="evenodd"></path><path d="M51.56 56.62L43.16 141l10.74 22.4-8.99 103.7-10.46 17.5 7.05 21.8 10.61 116.8 21.9 32.6 109.29.5 34.2-12.4 6.5 12.5 235.3 2.3 6.9-33.9-13.7-12.6 6.2-20.4-6-331.94-150-14.62-29.5 1.34-1.4 25.57-60.4-22.77z" overflow="visible" fill="#797677" fill-opacity=".434" fill-rule="evenodd"></path></svg><g class="" transform="translate(0,0)" style=""><path d="M256 37.143L77.896 343.853h356.208zM230.154 49.79L72 164.233v157.91zm51.69 0L440 322.144V164.232zm-132.516 90.02v21.786l-8.486 9.68v-16.942c-2.772 3.24-5.692 6.367-8.385 9.664 3.536.293 2.484 5.43 2.207 7.752-1.746 9.536-8.154 17.575-13.404 24.79-1.943 2.544-3.943 5.075-6.008 7.507-4.65 3.4-8.49 4.39-10.775-1.463.294-7.806 3.84-15.22 8.046-20.967l5.288-7.918c-.048 2.462.1 4.97-.072 7.405-2.34 4.347-6.766 9.46-5.758 14.608 7.76.874 12.22-10.863 14.522-16.58.832-2.76 2.108-5.458-1.418-5.434v-7.264zm212.13 1.21l44.853 54.464v7.262l-30.304-36.31v8.472l-6.06-7.262c-.155-4.15-1.424-8.377-2.425-12.103-1.86-2.936-3.96-5.704-6.06-8.47zM256.07 203.86c8.37 0 14.733 1.53 19.088 4.587 4.355 3.027 6.533 7.475 6.533 13.344 0 3.924-1.08 7.198-3.243 9.823-2.13 2.626-5.297 4.572-9.498 5.838 4.694 1.298 8.23 3.415 10.61 6.35 2.408 2.902 3.614 6.576 3.614 11.024 0 6.857-2.286 12.047-6.858 15.57-4.54 3.49-11.288 5.233-20.246 5.233-8.988 0-15.784-1.744-20.386-5.234-4.572-3.522-6.858-8.712-6.858-15.57 0-4.447 1.19-8.12 3.57-11.024 2.408-2.935 5.96-5.052 10.655-6.35-4.2-1.265-7.366-3.21-9.497-5.837-2.13-2.625-3.198-5.9-3.198-9.822 0-5.837 2.18-10.285 6.534-13.343 4.354-3.058 10.748-4.586 19.18-4.586zm0 11.212c-2.84 0-5.035.742-6.58 2.225-1.513 1.482-2.27 3.583-2.27 6.3 0 2.75.757 4.866 2.27 6.348 1.545 1.483 3.74 2.225 6.58 2.225 2.78 0 4.926-.742 6.44-2.225 1.513-1.482 2.27-3.598 2.27-6.347 0-2.75-.757-4.85-2.27-6.3-1.514-1.484-3.66-2.226-6.44-2.226zm0 28.262c-3.336 0-5.9.912-7.69 2.734-1.793 1.823-2.69 4.433-2.69 7.83 0 3.398.897 6.008 2.69 7.83 1.79 1.792 4.354 2.688 7.69 2.688 3.305 0 5.837-.896 7.598-2.687 1.76-1.824 2.64-4.434 2.64-7.832 0-3.428-.88-6.038-2.64-7.83-1.76-1.822-4.293-2.734-7.598-2.734zM88.7 359.852L256 480.912l167.3-121.06zm139.42 23.23h54.548v4.842c-14.406 5.942-21.582 12.897-27.88 25.416h-15.76c7.104-13.803 14.546-17.714 26.67-25.416h-37.58z" fill="#ff001f" fill-opacity="1" stroke="#000000" stroke-opacity="1" stroke-width="4" filter="url(#shadow-1)"></path></g></svg>